<?xml version="1.0" encoding="utf-8"?>
<!-- Generator: Adobe Illustrator 25.0.0, SVG Export Plug-In . SVG Version: 6.00 Build 0)  -->
<svg version="1.1" id="Layer_1" xmlns="http://www.w3.org/2000/svg" xmlns:xlink="http://www.w3.org/1999/xlink" x="0px" y="0px"
	 width="1640px" height="227.4px" viewBox="0 0 1640 227.4" style="enable-background:new 0 0 1640 227.4;" xml:space="preserve">
<g id="Group_1" transform="translate(-150.66 -174.136)">
	<path id="Path_1" d="M320.3,225.4c-9-3.9-21.9-5.8-38.9-5.8c-17,0-29.1,1.6-36.4,4.9c-7.3,3.3-10.9,8.1-10.9,14.5
		c0,5.2,2.2,9,6.6,11.4c4.4,2.4,11.6,4.1,21.5,5.1l85,7.2c25.1,2.2,44,8.5,56.5,18.8c12.6,10.4,18.8,26,18.8,47
		c0,19.3-5.2,34.3-15.6,44.9s-25.4,17.9-45,22c-19.6,4.1-45.1,6.1-76.4,6.1c-30.1,0-54.7-2.2-73.8-6.6s-33.8-12.2-44.3-23.5
		c-10.5-11.3-16.1-27.3-16.9-48h79c2.2,12.4,8,20.7,17.4,25.1c9.4,4.4,23.4,6.6,42.2,6.6c18.5,0,32-1.7,40.4-5.2
		c8.4-3.5,12.6-8.9,12.6-16.3c0-6.2-2.4-10.7-7.2-13.6s-11.6-4.7-20.3-5.5l-82.3-8.1c-25.5-2.6-44.6-8.7-57.3-18.2
		c-12.7-9.6-19-24.6-19-45.2c0-25.3,10.9-43.1,32.6-53.4s53.7-15.4,95.7-15.4c42.1,0,74.1,5.2,96.2,15.7c22,10.5,33.6,29,34.6,55.5
		h-78.7C334.7,236,329.3,229.3,320.3,225.4z"/>
	<path id="Path_2" d="M632.3,360.8H511.1l-16.2,33.8h-75.4l108-213.6H617l107.1,213.6h-75.4L632.3,360.8z M608.6,311.5l-36.2-74.2
		h-1.8L535,311.5H608.6z"/>
	<path id="Path_3" d="M802.4,321h1.8l63.4-140h80.5l-105,213.6h-79.3L658.8,181H739L802.4,321z"/>
	<path id="Path_4" d="M1026.5,262.7h156.2v45.2h-156.2v37.7h166.1v49.1H958.3V181h231v48.8h-162.8L1026.5,262.7z"/>
	<path id="Path_5" d="M1531.7,394.6h-68.2V243.5h-1.8l-63.7,151.1h-53.3l-65.2-153.2h-1.8v153.2h-64.9V181h107.1l50.9,127.8h1.8
		l50-127.8h109.2L1531.7,394.6z"/>
	<path id="Path_6" d="M1624.6,262.7h156.2v45.2h-156.2v37.7h166.1v49.1h-234.3V181h231v48.8h-162.8L1624.6,262.7z"/>
</g>
</svg>
